<svg id="visual" viewBox="0 0 900 600" width="900" height="600" xmlns="http://www.w3.org/2000/svg" xmlns:xlink="http://www.w3.org/1999/xlink" version="1.1"><path d="M0 477L30 486.7C60 496.3 120 515.7 180 526.7C240 537.7 300 540.3 360 534.5C420 528.7 480 514.3 540 501.5C600 488.7 660 477.3 720 481.7C780 486 840 506 870 516L900 526L900 601L870 601C840 601 780 601 720 601C660 601 600 601 540 601C480 601 420 601 360 601C300 601 240 601 180 601C120 601 60 601 30 601L0 601Z" fill="#818CF8" stroke-linecap="round" stroke-linejoin="miter"></path></svg>